<?xml version="1.0" encoding="UTF-8"?>
<!-- Generator: visioncortex VTracer 0.6.5 -->
<svg version="1.1" xmlns="http://www.w3.org/2000/svg" width="480" height="480">
<path d="M0 0 C0.57 0.54 1.14 1.09 1.73 1.65 C10.32 9.89 18.14 18.25 25 28 C25.41 28.57 25.81 29.13 26.23 29.72 C56.67 72.52 68.44 126.02 60.57 177.81 C55.76 206.24 55.76 206.24 52 210 C32.2 210 12.4 210 -8 210 C-8.16 182.44 -8.16 182.44 -9 43 C-51.24 85.24 -93.48 127.48 -137 171 C-141.02 168.99 -143.12 167.13 -146.26 163.98 C-146.52 163.72 -146.52 163.72 -147.83 162.41 C-149.57 160.68 -151.29 158.94 -153.02 157.21 C-154.26 155.96 -155.5 154.72 -156.75 153.48 C-160.12 150.11 -163.48 146.73 -166.85 143.35 C-170.37 139.82 -173.89 136.3 -177.41 132.78 C-184.08 126.1 -190.74 119.42 -197.41 112.74 C-206.41 103.71 -215.42 94.69 -224.43 85.66 C-238.63 71.45 -252.81 57.22 -267 43 C-267.33 98.11 -267.66 153.22 -268 210 C-287.8 210 -307.6 210 -328 210 C-331.38 202.11 -331.38 202.11 -332.32 198 C-332.42 197.55 -332.42 197.55 -332.94 195.28 C-333.15 194.34 -333.35 193.4 -333.56 192.44 C-333.78 191.45 -334 190.47 -334.22 189.46 C-345.41 137.8 -336.27 82.84 -308 38 C-304.94 33.4 -301.66 28.98 -298.26 24.62 C-297.15 23.19 -296.06 21.74 -294.97 20.29 C-284.03 6.19 -270.67 -6.82 -256 -17 C-255.44 -17.4 -254.88 -17.8 -254.3 -18.21 C-226.18 -38.22 -193.27 -50.29 -159 -54 C-158.3 -54.08 -157.6 -54.15 -156.88 -54.23 C-99.57 -59.97 -41.55 -39.59 0 0 Z " fill="#FF6600" transform="translate(378,94)"/>
<path d="M0 0 C3.41 1.7 5.02 2.77 7.59 5.35 C8.29 6.05 8.98 6.74 9.7 7.45 C10.45 8.21 11.21 8.97 11.98 9.75 C12.78 10.55 13.58 11.35 14.41 12.18 C17.05 14.83 19.69 17.48 22.33 20.13 C24.16 21.97 25.99 23.8 27.83 25.64 C32.16 29.98 36.48 34.32 40.81 38.67 C45.73 43.61 50.66 48.55 55.6 53.49 C65.74 63.66 75.87 73.83 86 84 C89.1 82.62 91.2 81.05 93.58 78.65 C94.27 77.95 94.97 77.26 95.68 76.55 C96.05 76.17 96.05 76.17 97.95 74.25 C98.75 73.45 99.54 72.65 100.37 71.82 C102.1 70.08 103.82 68.34 105.55 66.6 C108.27 63.85 111.01 61.1 113.74 58.36 C119.54 52.54 125.33 46.71 131.12 40.88 C137.84 34.11 144.56 27.35 151.29 20.6 C153.99 17.89 156.68 15.17 159.37 12.45 C161.02 10.8 162.66 9.15 164.31 7.5 C165.06 6.73 165.82 5.97 166.59 5.18 C167.28 4.49 167.97 3.81 168.67 3.1 C169.27 2.5 169.87 1.9 170.48 1.28 C172 0 172 0 174 0 C174 34.65 174 69.3 174 105 C201.72 105 229.44 105 258 105 C256.87 110.63 256.87 110.63 254.81 113.38 C254.37 113.99 253.92 114.59 253.46 115.21 C252.98 115.84 252.5 116.47 252 117.12 C251.75 117.46 251.75 117.46 250.48 119.15 C249.46 120.49 248.43 121.83 247.41 123.17 C246.24 124.69 245.09 126.22 243.94 127.76 C232.99 141.84 219.66 154.83 205 165 C204.44 165.4 203.88 165.8 203.3 166.21 C159.74 197.21 105.29 208.72 52.69 200.18 C21.14 194.55 -9.06 182.01 -34.38 162.26 C-35.81 161.15 -37.26 160.06 -38.71 158.97 C-52.81 148.03 -65.82 134.67 -76 120 C-76.39 119.45 -76.78 118.9 -77.18 118.34 C-84 108.67 -84 108.67 -84 105 C-56.28 105 -28.56 105 0 105 C0 70.35 0 35.7 0 0 Z " fill="#4C4C4C" transform="translate(153,238)"/>
</svg>
